<svg xmlns="http://www.w3.org/2000/svg" xmlns:xlink="http://www.w3.org/1999/xlink" version="1.1" id="Layer_1" x="0px" y="0px" width="100px" height="100px" viewBox="0 0 100 100" enable-background="new 0 0 100 100" xml:space="preserve">
<g>
	<polygon fill-rule="evenodd" clip-rule="evenodd" fill="#000000" points="78.63,19.279 68.279,25.263 80.564,31.361 79.789,44.559    89.886,38.248 90.844,25.131 90.859,25.122  "/>
	<polygon fill-rule="evenodd" clip-rule="evenodd" fill="#000000" points="64.908,23.59 75.106,17.635 76.009,18.026 63.567,12.082    53.203,17.781  "/>
	<polygon fill-rule="evenodd" clip-rule="evenodd" fill="#000000" points="49.489,15.938 59.995,10.375 48.745,5 38.213,10.568    38.451,10.459  "/>
	<polygon fill-rule="evenodd" clip-rule="evenodd" fill="#000000" points="46.005,17.782 34.948,12.295 24.405,17.868    35.197,23.503  "/>
	<polygon fill-rule="evenodd" clip-rule="evenodd" fill="#000000" points="20.357,31.361 31.656,25.378 20.842,19.752 9.158,25.929    9.141,25.919 9.684,38.929 20.688,45.145  "/>
	<polygon fill-rule="evenodd" clip-rule="evenodd" fill="#000000" points="20.758,48.072 9.803,41.801 10.337,54.63 21.067,60.989     "/>
	<polygon fill-rule="evenodd" clip-rule="evenodd" fill="#000000" points="21.159,64.756 10.496,58.46 10.999,70.512 21.938,77.247    21.449,76.906  "/>
	<polygon fill-rule="evenodd" clip-rule="evenodd" fill="#000000" points="25.032,79.151 36.111,85.972 36.111,73.586    24.823,66.921  "/>
	<polygon fill-rule="evenodd" clip-rule="evenodd" fill="#000000" points="39.272,75.453 39.231,87.894 50.773,95 61.546,87.604    61.916,75.42 51.24,82.521  "/>
	<polygon fill-rule="evenodd" clip-rule="evenodd" fill="#000000" points="64.348,85.681 74.96,78.396 75.54,66.356 64.889,73.443     "/>
	<polygon fill-rule="evenodd" clip-rule="evenodd" fill="#000000" points="77.918,76.367 87.584,69.732 88.459,57.762    78.627,64.303  "/>
	<polygon fill-rule="evenodd" clip-rule="evenodd" fill="#000000" points="78.852,60.499 88.521,54.133 89.666,41.252    79.608,47.603  "/>
	<polygon fill-rule="evenodd" clip-rule="evenodd" fill="#000000" points="65.058,69.579 75.723,62.558 76.343,49.666    65.638,56.427  "/>
	<polygon fill-rule="evenodd" clip-rule="evenodd" fill="#000000" points="54.177,33.416 66.371,39.784 65.774,53.316    76.489,46.621 77.133,33.233 64.952,27.187  "/>
	<polygon fill-rule="evenodd" clip-rule="evenodd" fill="#000000" points="39.096,25.54 50.96,31.736 61.599,25.522 49.789,19.66     "/>
	<polygon fill-rule="evenodd" clip-rule="evenodd" fill="#000000" points="35.629,27.445 24.256,33.701 24.488,47.292    36.111,53.855 36.111,40.408 47.621,33.686  "/>
	<polygon fill-rule="evenodd" clip-rule="evenodd" fill="#000000" points="24.76,63.177 36.111,69.904 36.111,56.86 24.539,50.236     "/>
	<polygon fill-rule="evenodd" clip-rule="evenodd" fill="#000000" points="39.33,58.701 39.286,71.786 51.085,78.777 62.032,71.57    62.43,58.452 51.24,65.521  "/>
	<polygon fill-rule="evenodd" clip-rule="evenodd" fill="#000000" points="39.386,41.968 39.34,55.679 51.24,62.4 62.525,55.349    62.939,41.655 50.826,35.354  "/>
</g>
</svg>