<svg xmlns="http://www.w3.org/2000/svg" xmlns:xlink="http://www.w3.org/1999/xlink" version="1.1" id="Your_Icon" x="0px" y="0px" width="100px" height="100px" viewBox="0 0 100 100" enable-background="new 0 0 100 100" xml:space="preserve">
<path d="M91.72,15l-0.52-0.27L66.44,63.59l-2.91-1.47l-1.05-0.54l-2.91-1.47l24.76-48.86l-0.52-0.27c-0.27-0.13-0.35-0.5-0.21-0.86  c-0.02,0.02-0.04,0.05-0.05,0.07l-25.3,49.92c-0.15,0.29-0.03,0.64,0.26,0.79l0.21,0.11l7.49,3.79l0.22,0.11  c0.29,0.15,0.65,0.03,0.79-0.26l25.3-49.91c0.02-0.03,0.03-0.06,0.03-0.1C92.35,14.97,92,15.13,91.72,15z"/>
<path d="M96.72,5.13L88.8,1.12c-0.29-0.15-0.68,0.05-0.88,0.44L83.64,10c-0.02,0.04-0.04,0.08-0.04,0.12  c-0.14,0.36-0.06,0.73,0.21,0.86l0.52,0.27l2.91,1.47l1.05,0.53l2.91,1.48L91.72,15c0.28,0.13,0.63-0.03,0.83-0.36  c0.03-0.03,0.04-0.06,0.06-0.09l4.28-8.44C97.09,5.72,97.01,5.28,96.72,5.13z M91.92,13.3l-6.87-3.48l0.74-1.46l6.87,3.47  L91.92,13.3z"/>
<path d="M57.11,74.074c-0.091,0-0.182-0.021-0.267-0.063c-0.223-0.113-0.351-0.354-0.318-0.602l1.704-13.185  c0.024-0.19,0.14-0.356,0.31-0.446c0.17-0.089,0.371-0.09,0.542-0.005l7.92,4.013c0.171,0.087,0.289,0.251,0.316,0.44  c0.028,0.189-0.037,0.381-0.176,0.513l-9.624,9.172C57.405,74.019,57.259,74.074,57.11,74.074z M59.292,61.203l-1.384,10.706  l7.815-7.448L59.292,61.203z"/>
<polygon points="57.625,72.469 57.502,70.23 57.38,67.991 59.38,69.005 61.38,70.018 59.503,71.244 "/>
<polygon points="88.29,13.25 63.53,62.12 63.3,62.57 62.25,62.04 62.48,61.58 87.24,12.72 "/>
<path d="M10.522,97.989c-2.68,0.126-3.432-0.877-3.91-1.514c-3.599-4.794,9.048-17.519,16.909-24.677  C43.731,53.392,44.943,49.1,44.895,48.272c-0.634-0.272-4.017-0.617-20.663,7.506C9.859,62.794,7.756,61.957,6.744,60.376  c-0.579-0.902-2.34-3.645,15.445-18.238c0.603-0.495,1.492-0.407,1.987,0.195c0.495,0.603,0.407,1.492-0.195,1.987  c-6.391,5.245-13.288,11.833-14.552,14.291c1.217-0.121,4.584-0.987,13.564-5.37c19.905-9.716,22.959-8.491,24.259-6.576  c1.599,2.355,0.061,7.282-21.83,27.219C11.095,86.933,8.056,93.697,8.87,94.781c0.139,0.189,3.989,4.346,46.724-21.808  c0.664-0.406,1.534-0.198,1.94,0.467c0.408,0.665,0.199,1.534-0.467,1.941C27.417,93.527,15.562,97.753,10.522,97.989z"/>
</svg>